<?xml version="1.0" standalone="no"?>
<!DOCTYPE svg PUBLIC "-//W3C//DTD SVG 20010904//EN"
 "http://www.w3.org/TR/2001/REC-SVG-20010904/DTD/svg10.dtd">
<svg version="1.0" xmlns="http://www.w3.org/2000/svg"
 width="300.000000pt" height="300.000000pt" viewBox="0 0 300.000000 300.000000"
 preserveAspectRatio="xMidYMid meet">
<metadata>
Created by potrace 1.14, written by Peter Selinger 2001-2017
</metadata>
<g transform="translate(0.000000,300.000000) scale(0.100000,-0.100000)"
fill="#000000" stroke="none">
<path d="M1325 2749 c-90 -12 -109 -16 -188 -38 -359 -101 -657 -366 -805
-716 -37 -88 -77 -230 -88 -315 -9 -69 -10 -282 -2 -335 4 -22 10 -58 13 -80
15 -97 117 -371 134 -363 4 2 36 16 72 31 l64 28 154 457 c85 251 157 460 160
464 3 3 147 -115 320 -263 172 -149 315 -269 316 -267 2 2 56 264 121 583 64
319 120 583 123 587 4 4 192 -161 419 -367 l412 -376 55 42 c30 23 55 48 55
55 0 23 -66 180 -105 250 -95 169 -255 338 -420 441 -93 59 -260 133 -332 148
-10 2 -40 9 -68 15 -27 6 -63 14 -80 16 -51 9 -278 11 -330 3z"/>
<path d="M1872 1994 c-6 -27 -59 -287 -118 -579 -59 -291 -110 -534 -114 -538
-4 -4 -156 121 -339 279 -183 157 -336 282 -341 278 -4 -5 -56 -155 -115 -333
l-108 -324 -96 -45 c-53 -24 -98 -46 -100 -48 -13 -13 179 -181 274 -241 123
-77 275 -138 428 -170 87 -18 322 -24 407 -10 346 56 623 226 836 512 94 127
188 355 214 520 15 88 21 275 11 275 -5 0 -44 -27 -87 -60 -43 -33 -82 -60
-87 -60 -7 0 -492 436 -608 548 l-47 44 -10 -48z"/>
</g>
</svg>
