<?xml version="1.0" standalone="no"?>
<!DOCTYPE svg PUBLIC "-//W3C//DTD SVG 20010904//EN"
 "http://www.w3.org/TR/2001/REC-SVG-20010904/DTD/svg10.dtd">
<svg version="1.0" xmlns="http://www.w3.org/2000/svg"
 width="1000.000000pt" height="1000.000000pt" viewBox="0 0 1000.000000 1000.000000"
 preserveAspectRatio="xMidYMid meet">
<metadata>
Created by potrace 1.14, written by Peter Selinger 2001-2017
</metadata>
<g transform="translate(0.000000,1000.000000) scale(0.100000,-0.100000)"
fill="#000000" stroke="none">
<path d="M4738 9995 c-1 -1 -46 -5 -98 -9 -52 -3 -113 -8 -135 -10 -22 -3 -64
-8 -93 -11 -29 -2 -63 -7 -75 -10 -12 -2 -41 -7 -65 -9 -24 -3 -84 -13 -135
-21 -105 -18 -130 -23 -204 -40 -13 -3 -32 -7 -44 -10 -11 -2 -28 -6 -37 -9
-9 -3 -28 -7 -42 -10 -67 -12 -423 -117 -495 -147 -17 -7 -34 -13 -40 -14 -15
-4 -116 -44 -152 -60 -17 -8 -33 -15 -36 -15 -2 0 -22 -8 -43 -17 -22 -9 -41
-17 -44 -18 -24 -6 -368 -176 -435 -215 -22 -13 -53 -30 -70 -38 -16 -9 -32
-18 -35 -21 -8 -10 -64 -42 -82 -48 -10 -3 -18 -9 -18 -14 0 -5 -7 -9 -15 -9
-8 0 -15 -4 -15 -10 0 -5 -5 -10 -10 -10 -11 0 -280 -180 -300 -200 -3 -3 -27
-21 -53 -40 -27 -19 -62 -47 -78 -62 -16 -15 -29 -25 -29 -23 0 3 -8 -3 -18
-12 -10 -10 -34 -31 -53 -46 -59 -48 -130 -110 -187 -164 -30 -29 -56 -53 -57
-53 -3 0 -158 -157 -239 -242 -35 -38 -62 -68 -59 -68 2 0 -14 -19 -36 -43
-22 -23 -62 -70 -89 -104 -27 -33 -59 -71 -71 -84 -11 -12 -21 -27 -21 -31 0
-5 -11 -19 -25 -32 -14 -13 -25 -26 -25 -29 0 -3 -28 -46 -63 -94 -147 -204
-397 -627 -397 -670 0 -6 -3 -13 -8 -15 -7 -3 -102 -201 -107 -223 -1 -5 -12
-32 -24 -60 -13 -27 -38 -93 -58 -145 -19 -52 -37 -102 -40 -110 -4 -8 -7 -17
-8 -20 -1 -3 -19 -59 -40 -125 -22 -66 -40 -122 -40 -125 -1 -3 -7 -25 -14
-50 -16 -56 -14 -48 -51 -205 -17 -71 -33 -146 -36 -165 -3 -19 -7 -42 -10
-51 -2 -9 -7 -32 -9 -50 -3 -19 -7 -45 -10 -59 -3 -14 -8 -45 -11 -70 -3 -25
-7 -52 -9 -60 -2 -8 -7 -44 -11 -80 -3 -36 -8 -81 -10 -100 -14 -139 -19 -270
-18 -505 1 -220 8 -450 14 -450 1 0 3 -16 5 -35 2 -19 7 -57 10 -85 4 -27 8
-68 11 -90 2 -22 6 -51 9 -65 2 -13 7 -40 10 -60 3 -20 8 -47 11 -60 2 -14 7
-38 9 -55 6 -39 13 -72 19 -93 3 -9 8 -30 11 -47 12 -69 51 -227 65 -265 6
-14 12 -36 14 -50 3 -14 5 -26 7 -27 1 -2 2 -6 3 -10 9 -36 63 -199 96 -288
23 -60 42 -114 44 -120 1 -5 8 -23 16 -40 7 -16 16 -39 20 -50 15 -37 48 -109
110 -240 34 -71 62 -132 62 -135 0 -3 4 -10 9 -16 5 -6 21 -33 35 -60 33 -63
38 -68 60 -56 24 13 147 70 239 112 113 51 160 74 166 83 3 5 8 7 10 5 2 -1
32 10 66 25 49 22 64 34 69 55 4 15 11 33 17 40 5 6 7 12 4 12 -3 0 8 36 24
80 15 44 29 84 30 88 3 13 11 37 26 77 25 65 84 237 93 270 7 27 103 310 117
345 3 8 7 20 9 25 1 6 14 40 28 76 14 37 22 69 19 73 -4 3 -2 6 4 6 5 0 10 6
10 13 0 15 142 434 155 460 5 10 11 26 13 35 2 9 17 56 34 104 17 49 31 95 31
103 0 8 5 15 12 15 6 0 9 3 5 6 -3 3 1 25 10 47 8 23 16 47 17 52 2 6 5 17 8
25 27 73 59 169 63 185 2 11 15 47 29 80 13 32 22 63 20 67 -3 4 0 8 5 8 6 0
10 3 10 8 -1 4 0 9 1 12 1 3 3 13 5 22 2 10 11 39 20 65 10 27 18 53 20 58 1
6 4 15 5 20 2 6 14 39 27 75 14 36 27 72 28 80 2 8 4 16 5 18 2 1 4 7 5 12 1
6 3 11 5 13 1 1 3 9 5 17 2 8 24 74 50 145 26 72 48 137 50 145 2 8 4 15 5 15
1 0 3 7 5 15 2 8 25 76 50 150 26 74 48 140 49 145 2 6 6 17 9 25 29 70 65
179 60 184 -4 3 -1 6 5 6 7 0 11 3 10 8 -2 9 20 84 30 99 5 8 18 3 42 -19 89
-77 110 -95 146 -123 21 -16 45 -37 53 -45 9 -9 68 -59 131 -112 63 -53 127
-107 142 -121 15 -14 36 -31 46 -39 19 -13 99 -80 152 -128 15 -14 45 -39 66
-56 22 -18 51 -42 66 -55 29 -27 30 -27 264 -224 94 -79 185 -157 203 -174 18
-17 35 -31 38 -31 2 0 10 -6 17 -12 7 -7 34 -31 60 -53 26 -22 60 -51 75 -65
16 -14 50 -43 76 -65 26 -22 53 -45 59 -50 6 -6 81 -68 166 -140 85 -71 164
-137 175 -147 59 -52 88 -76 121 -103 20 -16 50 -42 65 -58 16 -15 32 -27 36
-27 5 0 17 -11 27 -25 10 -13 21 -23 25 -21 4 3 17 -9 30 -25 13 -16 27 -29
33 -29 5 0 19 -10 31 -23 24 -24 195 -169 213 -180 6 -3 11 -1 12 6 0 7 3 23
7 37 3 14 8 36 10 50 2 14 11 56 20 95 9 38 18 82 20 97 2 15 6 35 9 45 3 10
8 32 11 48 6 36 10 55 25 120 6 28 13 61 15 75 2 14 5 27 6 30 1 3 3 10 4 15
12 76 19 109 32 159 15 61 24 108 26 139 1 9 4 17 7 17 3 0 6 10 6 23 0 12 10
67 22 122 23 103 28 129 38 180 3 17 12 59 20 95 8 36 17 76 19 90 4 27 7 41
29 145 19 88 27 125 31 150 2 11 4 20 5 20 1 0 4 12 5 26 2 14 13 65 24 115
25 108 32 142 35 171 1 12 5 25 8 28 4 4 4 13 2 20 -3 7 0 16 5 20 6 3 9 10 7
14 -3 4 2 36 10 72 9 35 17 75 19 89 2 14 4 25 5 25 2 0 6 22 14 70 4 22 13
69 22 105 8 36 17 76 19 90 5 27 12 62 15 70 1 3 2 9 1 14 -1 5 1 16 5 25 4 9
8 23 9 31 1 8 8 42 15 75 13 62 15 71 26 143 4 23 11 42 16 42 5 0 7 4 4 9 -4
5 1 38 9 73 8 35 17 81 21 102 3 21 8 48 10 60 3 11 7 32 10 46 3 14 11 50 19
80 7 30 17 73 20 95 4 22 9 54 12 70 2 17 13 66 23 110 11 44 22 94 25 110 8
47 13 74 30 153 9 39 18 84 20 100 2 15 4 27 5 27 2 0 6 20 14 65 4 19 16 73
27 119 10 46 17 86 14 89 -3 3 -1 10 4 16 5 6 11 30 15 54 3 24 15 82 26 129
11 46 22 99 24 116 2 18 7 44 11 60 l7 27 37 -31 c20 -18 70 -62 111 -99 41
-37 102 -91 135 -120 66 -59 101 -91 156 -142 20 -18 65 -58 99 -88 35 -30 83
-74 107 -97 24 -24 46 -43 49 -43 4 0 26 -20 50 -45 24 -25 44 -43 44 -40 0 3
17 -12 39 -32 71 -70 140 -133 144 -133 3 0 25 -19 49 -42 41 -40 149 -137
208 -188 14 -12 59 -52 100 -90 41 -38 84 -77 96 -87 121 -105 570 -508 608
-545 27 -27 52 -48 55 -48 3 0 44 -36 90 -80 47 -44 86 -80 88 -80 2 0 14 -10
27 -22 13 -13 58 -54 101 -93 43 -38 93 -83 111 -100 18 -16 58 -52 89 -80 32
-27 72 -63 89 -80 42 -38 168 -151 209 -188 18 -15 49 -43 69 -63 20 -19 39
-35 43 -34 3 0 17 -13 33 -30 15 -16 88 -83 161 -149 93 -83 139 -117 146
-111 7 6 15 7 18 3 4 -3 7 -1 7 5 0 5 17 21 38 33 20 13 42 28 47 35 6 6 46
37 90 69 44 33 85 64 91 69 6 6 46 36 87 66 65 47 76 59 72 80 -4 26 -74 233
-95 285 -7 17 -14 36 -16 43 -5 24 -130 318 -156 367 -6 11 -14 27 -18 35 -49
102 -152 296 -165 310 -8 9 -15 20 -15 24 0 4 -16 32 -35 62 -19 30 -35 57
-35 60 0 8 -44 69 -52 72 -5 2 -8 8 -8 14 0 10 -56 94 -77 116 -7 7 -13 17
-13 22 0 5 -9 19 -20 32 -11 12 -56 73 -101 133 -45 61 -87 115 -94 120 -6 6
-31 35 -55 65 -24 30 -59 71 -77 90 -18 19 -42 46 -53 60 -42 50 -219 227
-310 310 -51 47 -99 91 -106 98 -7 6 -17 12 -23 12 -6 0 -11 4 -11 8 0 8 -103
94 -180 152 -19 14 -41 32 -50 40 -9 8 -36 28 -60 45 -25 16 -47 32 -50 35 -3
4 -22 16 -42 29 -21 12 -38 27 -38 32 0 5 -7 9 -16 9 -8 0 -22 6 -29 13 -29
25 -44 37 -49 37 -2 0 -31 17 -63 38 -67 42 -74 47 -163 99 -36 21 -87 49
-115 63 -27 14 -52 28 -55 31 -3 3 -33 18 -67 34 -35 16 -63 32 -63 37 0 5 -4
7 -8 4 -5 -3 -23 4 -40 15 -18 10 -39 19 -47 19 -8 0 -15 5 -15 10 0 6 -8 10
-18 10 -10 0 -22 4 -28 9 -16 15 -218 95 -409 162 -60 21 -111 39 -112 40 -2
1 -6 2 -10 3 -5 1 -42 12 -83 25 -41 13 -82 24 -90 26 -8 2 -51 13 -95 25 -44
12 -93 24 -110 26 -16 3 -37 8 -45 11 -8 3 -24 8 -35 9 -11 2 -40 8 -65 13
-25 6 -63 13 -85 17 -22 4 -47 9 -55 10 -8 2 -35 6 -60 10 -25 3 -56 8 -70 11
-14 2 -43 6 -65 8 -22 2 -40 4 -40 5 0 3 -50 8 -107 11 -27 1 -48 5 -48 8 0 3
-26 7 -58 8 -126 5 -670 11 -674 8z"/>
<path d="M6610 7112 c-7 -31 -14 -66 -16 -77 -1 -11 -3 -20 -4 -20 -2 0 -6
-19 -14 -65 -3 -19 -15 -76 -26 -127 -11 -51 -22 -103 -24 -115 -3 -13 -5 -23
-6 -23 -1 0 -3 -13 -5 -30 -2 -16 -13 -72 -25 -124 -13 -52 -23 -107 -24 -123
0 -15 -3 -28 -6 -28 -3 0 -6 -8 -7 -17 -1 -10 -11 -61 -22 -113 -11 -52 -23
-106 -25 -120 -3 -14 -5 -25 -6 -25 -1 0 -3 -14 -5 -31 -3 -17 -14 -71 -25
-120 -21 -86 -24 -104 -34 -171 -3 -17 -14 -70 -25 -117 -26 -110 -31 -134
-36 -172 -2 -18 -13 -71 -24 -118 -21 -89 -27 -118 -37 -176 -3 -19 -16 -82
-29 -140 -13 -58 -21 -108 -18 -112 2 -5 -1 -8 -7 -8 -6 0 -9 -4 -6 -8 2 -4
-4 -48 -15 -98 -11 -49 -22 -100 -24 -114 -2 -14 -5 -25 -6 -25 -1 0 -3 -11
-4 -25 -2 -14 -5 -34 -8 -45 -14 -54 -48 -210 -51 -238 -3 -18 -5 -32 -6 -32
-2 0 -10 -38 -16 -75 -2 -19 -9 -50 -15 -68 -6 -18 -8 -36 -5 -39 3 -4 2 -11
-4 -18 -5 -6 -12 -29 -15 -51 -6 -42 -10 -65 -19 -104 -13 -59 -36 -167 -41
-195 -6 -32 -12 -57 -15 -65 -1 -3 -2 -8 -1 -12 0 -3 -8 -46 -19 -95 -10 -48
-21 -100 -24 -115 -4 -16 -8 -40 -12 -55 -3 -16 -14 -68 -24 -117 -11 -49 -17
-92 -14 -97 3 -5 1 -9 -5 -9 -5 0 -8 -8 -6 -17 1 -10 0 -22 -4 -28 -3 -5 -6
-16 -8 -24 -1 -8 -9 -47 -18 -88 -9 -40 -18 -85 -20 -101 -2 -15 -4 -27 -5
-27 -2 0 -9 -35 -14 -71 -3 -17 -12 -58 -20 -90 -8 -32 -17 -72 -20 -89 -3
-16 -8 -41 -11 -55 -3 -14 -8 -38 -10 -55 -7 -47 -16 -85 -21 -85 -2 0 -17 11
-32 24 -24 22 -384 325 -441 371 -13 11 -28 25 -35 30 -10 10 -141 122 -196
169 -14 12 -126 106 -250 210 -124 105 -232 197 -241 205 -9 9 -33 30 -53 46
-21 17 -50 41 -66 55 -15 14 -45 39 -65 55 -20 17 -44 37 -53 46 -9 8 -105 89
-212 179 -107 90 -204 172 -215 182 -11 10 -31 28 -45 39 -24 20 -90 76 -140
119 -14 12 -45 39 -70 60 -25 21 -124 104 -220 185 -96 80 -183 156 -192 167
-10 11 -18 17 -18 12 0 -4 -15 6 -32 23 -70 68 -87 83 -94 83 -4 0 -17 11 -30
26 l-24 25 -11 -28 c-39 -98 -146 -423 -141 -427 3 -4 1 -6 -5 -6 -5 0 -10 -6
-10 -12 0 -7 -24 -78 -52 -158 -29 -80 -54 -152 -56 -160 -2 -8 -4 -16 -5 -17
-2 -2 -4 -7 -5 -13 -1 -5 -3 -11 -5 -12 -1 -2 -3 -10 -5 -18 -1 -8 -12 -37
-23 -65 -11 -27 -20 -53 -21 -57 0 -5 -1 -9 -2 -10 0 -2 -2 -10 -4 -18 -2 -8
-15 -49 -30 -90 -15 -41 -28 -82 -30 -90 -2 -8 -15 -46 -30 -85 -15 -38 -29
-77 -31 -85 -2 -8 -40 -121 -84 -250 -45 -129 -83 -242 -85 -250 -2 -8 -4 -16
-5 -17 -2 -2 -3 -6 -4 -10 -1 -5 -12 -35 -25 -68 -12 -33 -24 -67 -26 -75 -2
-8 -43 -127 -90 -265 -47 -137 -87 -254 -88 -260 -22 -82 -63 -159 -82 -155
-3 1 -31 -11 -63 -25 -31 -15 -86 -41 -122 -57 -172 -79 -277 -128 -410 -191
-63 -30 -125 -57 -137 -61 -43 -14 -45 -12 218 -278 92 -92 172 -168 178 -168
6 0 11 -7 11 -15 0 -8 5 -15 10 -15 6 0 23 -12 39 -28 40 -37 64 -58 151 -127
41 -33 79 -64 85 -68 120 -97 490 -344 508 -339 4 1 7 -2 7 -8 0 -5 4 -10 9
-10 4 0 48 -23 97 -51 161 -94 583 -291 637 -298 4 0 21 -8 37 -16 17 -9 30
-13 30 -9 0 4 6 2 13 -3 9 -8 136 -55 157 -58 3 0 34 -10 70 -22 120 -39 205
-63 221 -63 9 0 19 -3 23 -7 4 -5 17 -8 29 -8 12 -1 27 -4 33 -8 7 -4 29 -9
50 -13 22 -3 42 -8 45 -10 3 -2 21 -6 40 -9 19 -3 43 -8 54 -12 11 -3 31 -7
45 -9 14 -2 79 -12 145 -24 66 -12 138 -23 160 -25 22 -3 58 -7 80 -10 40 -5
70 -8 245 -22 186 -14 622 -8 805 12 100 11 142 16 175 20 19 2 53 6 75 9 134
17 491 93 639 137 38 11 76 22 85 24 56 12 415 143 506 184 22 10 65 29 95 42
55 23 339 165 395 197 17 10 61 35 98 57 38 22 77 44 88 50 10 5 19 13 19 17
0 5 5 8 10 8 9 0 116 66 130 80 14 14 102 70 109 70 5 0 11 4 13 8 2 4 39 35
83 67 67 50 208 162 252 200 6 5 34 30 63 55 28 25 83 75 123 113 39 37 75 67
79 67 3 0 9 8 12 18 4 11 18 25 31 32 14 7 25 16 25 20 0 4 26 33 58 66 31 33
80 86 107 118 28 31 64 73 80 91 37 42 36 41 113 140 35 44 68 87 75 95 7 9
28 38 47 65 19 28 39 55 45 62 31 37 35 43 30 43 -3 0 11 24 32 53 21 29 43
62 50 72 160 265 169 281 228 400 28 55 53 102 58 103 4 2 7 8 7 13 0 5 14 39
31 76 56 122 62 138 62 151 0 6 4 12 9 12 4 0 8 9 8 20 0 11 4 20 10 20 5 0 9
3 8 8 0 4 2 14 5 22 12 28 51 135 52 140 0 3 5 19 12 35 21 55 26 70 28 75 1
3 18 57 38 120 34 107 93 322 102 373 3 12 7 33 10 47 3 14 7 36 10 50 3 14
10 50 16 80 6 30 12 64 14 75 2 11 8 47 14 80 13 76 29 200 36 290 2 28 4 50
5 50 6 0 11 129 14 380 3 285 0 386 -13 368 -3 -4 -49 -40 -101 -78 -52 -39
-96 -73 -98 -77 -2 -5 -8 -8 -13 -8 -6 0 -24 -13 -42 -30 -18 -16 -38 -30 -44
-30 -7 0 -13 -4 -13 -8 0 -5 -27 -28 -60 -52 -33 -24 -60 -47 -60 -52 0 -4 -4
-7 -9 -5 -4 1 -40 -23 -79 -53 -38 -30 -83 -64 -98 -75 -15 -11 -40 -30 -55
-42 -15 -13 -30 -23 -34 -23 -4 0 -18 10 -32 23 -14 12 -45 40 -69 62 -24 22
-67 60 -95 85 -27 25 -68 62 -89 83 -21 20 -41 37 -44 37 -3 0 -23 18 -45 40
-22 22 -42 40 -44 40 -3 0 -25 19 -49 43 -24 23 -75 69 -113 102 -37 33 -77
69 -89 81 -12 11 -212 191 -446 399 -425 379 -495 442 -557 503 -18 17 -35 32
-38 32 -6 0 -78 66 -146 133 -21 20 -41 37 -45 37 -3 0 -26 19 -49 43 -24 23
-68 65 -100 92 -110 98 -140 125 -175 160 -20 19 -38 35 -42 35 -4 0 -24 17
-45 38 -21 20 -61 57 -89 82 -27 25 -90 81 -138 125 -48 44 -93 83 -100 87 -9
5 -17 -9 -26 -50z"/>
</g>
</svg>
